TITLE ""
FILE "Disc1Track55.mp3" MP3
  TRACK 01 AUDIO
    TITLE "Disc1Track55_01"
    INDEX 01 00:00:00
  TRACK 02 AUDIO
    TITLE "Disc1Track55_02"
    INDEX 01 00:00:73
  TRACK 03 AUDIO
    TITLE "Disc1Track55_03"
    INDEX 01 00:03:58
  TRACK 04 AUDIO
    TITLE "Disc1Track55_04"
    INDEX 01 00:04:67
  TRACK 05 AUDIO
    TITLE "Disc1Track55_05"
    INDEX 01 00:09:46
  TRACK 06 AUDIO
    TITLE "Disc1Track55_06"
    INDEX 01 00:10:05
  TRACK 07 AUDIO
    TITLE "Disc1Track55_07"
    INDEX 01 00:11:24
  TRACK 08 AUDIO
    TITLE "Disc1Track55_08"
    INDEX 01 00:13:27
  TRACK 09 AUDIO
    TITLE "Disc1Track55_09"
    INDEX 01 00:14:48
  TRACK 10 AUDIO
    TITLE "Disc1Track55_10"
    INDEX 01 00:15:12
  TRACK 11 AUDIO
    TITLE "Disc1Track55_11"
    INDEX 01 00:16:39
  TRACK 12 AUDIO
    TITLE "Disc1Track55_12"
    INDEX 01 00:18:47
  TRACK 13 AUDIO
    TITLE "Disc1Track55_13"
    INDEX 01 00:19:72
  TRACK 14 AUDIO
    TITLE "Disc1Track55_14"
    INDEX 01 00:24:25
  TRACK 15 AUDIO
    TITLE "Disc1Track55_15"
    INDEX 01 00:24:54
  TRACK 16 AUDIO
    TITLE "Disc1Track55_16"
    INDEX 01 00:26:08
  TRACK 17 AUDIO
    TITLE "Disc1Track55_17"
    INDEX 01 00:28:50
  TRACK 18 AUDIO
    TITLE "Disc1Track55_18"
    INDEX 01 00:30:00
  TRACK 19 AUDIO
    TITLE "Disc1Track55_19"
    INDEX 01 00:34:21
  TRACK 20 AUDIO
    TITLE "Disc1Track55_20"
    INDEX 01 00:34:50
  TRACK 21 AUDIO
    TITLE "Disc1Track55_21"
    INDEX 01 00:35:64
  TRACK 22 AUDIO
    TITLE "Disc1Track55_22"
    INDEX 01 00:38:13
  TRACK 23 AUDIO
    TITLE "Disc1Track55_23"
    INDEX 01 00:39:24
  TRACK 24 AUDIO
    TITLE "Disc1Track55_24"
    INDEX 01 00:41:33
  TRACK 25 AUDIO
    TITLE "Disc1Track55_25"
    INDEX 01 00:41:64
  TRACK 26 AUDIO
    TITLE "Disc1Track55_26"
    INDEX 01 00:43:00
  TRACK 27 AUDIO
    TITLE "Disc1Track55_27"
    INDEX 01 00:46:20
  TRACK 28 AUDIO
    TITLE "Disc1Track55_28"
    INDEX 01 00:47:31
  TRACK 29 AUDIO
    TITLE "Disc1Track55_29"
    INDEX 01 00:52:19
  TRACK 30 AUDIO
    TITLE "Disc1Track55_30"
    INDEX 01 00:52:50
  TRACK 31 AUDIO
    TITLE "Disc1Track55_31"
    INDEX 01 00:53:57
  TRACK 32 AUDIO
    TITLE "Disc1Track55_32"
    INDEX 01 00:54:67
  TRACK 33 AUDIO
    TITLE "Disc1Track55_33"
    INDEX 01 00:55:74
  TRACK 34 AUDIO
    TITLE "Disc1Track55_34"
    INDEX 01 00:58:08
  TRACK 35 AUDIO
    TITLE "Disc1Track55_35"
    INDEX 01 00:58:39
  TRACK 36 AUDIO
    TITLE "Disc1Track55_36"
    INDEX 01 00:59:58
  TRACK 37 AUDIO
    TITLE "Disc1Track55_37"
    INDEX 01 01:01:04
  TRACK 38 AUDIO
    TITLE "Disc1Track55_38"
    INDEX 01 01:02:23
  TRACK 39 AUDIO
    TITLE "Disc1Track55_39"
    INDEX 01 01:02:60
  TRACK 40 AUDIO
    TITLE "Disc1Track55_40"
    INDEX 01 01:04:08
  TRACK 41 AUDIO
    TITLE "Disc1Track55_41"
    INDEX 01 01:06:43
  TRACK 42 AUDIO
    TITLE "Disc1Track55_42"
    INDEX 01 01:07:64
  TRACK 43 AUDIO
    TITLE "Disc1Track55_43"
    INDEX 01 01:12:71
  TRACK 44 AUDIO
    TITLE "Disc1Track55_44"
    INDEX 01 01:13:29
  TRACK 45 AUDIO
    TITLE "Disc1Track55_45"
    INDEX 01 01:14:60
  TRACK 46 AUDIO
    TITLE "Disc1Track55_46"
    INDEX 01 01:16:62
  TRACK 47 AUDIO
    TITLE "Disc1Track55_47"
    INDEX 01 01:18:16
  TRACK 48 AUDIO
    TITLE "Disc1Track55_48"
    INDEX 01 01:18:54
  TRACK 49 AUDIO
    TITLE "Disc1Track55_49"
    INDEX 01 01:19:67
  TRACK 50 AUDIO
    TITLE "Disc1Track55_50"
    INDEX 01 01:20:62
  TRACK 51 AUDIO
    TITLE "Disc1Track55_51"
    INDEX 01 01:21:73
  TRACK 52 AUDIO
    TITLE "Disc1Track55_52"
    INDEX 01 01:22:40
  TRACK 53 AUDIO
    TITLE "Disc1Track55_53"
    INDEX 01 01:23:66
  TRACK 54 AUDIO
    TITLE "Disc1Track55_54"
    INDEX 01 01:27:09
  TRACK 55 AUDIO
    TITLE "Disc1Track55_55"
    INDEX 01 01:28:38
